<svg width="252" height="462" viewBox="0 0 252 462" fill="none" xmlns="http://www.w3.org/2000/svg">
<path d="M79.9734 500.473C81.1915 508.26 87.8993 514 95.7812 514H411.862C419.646 514 426.3 508.399 427.628 500.73L498.148 93.5307C256.57 2 253.71 176.48 16.3177 93.5307L79.9734 500.473Z" fill="#0077BE" style="mix-blend-mode:multiply"/>
<path d="M514 2L498.148 93.5307M2 2L16.3177 93.5307M16.3177 93.5307L79.9734 500.473C81.1915 508.26 87.8993 514 95.7812 514H411.862C419.646 514 426.3 508.399 427.628 500.73L498.148 93.5307M16.3177 93.5307C253.71 176.48 256.57 2 498.148 93.5307" stroke="black" stroke-width="3" stroke-linecap="round" stroke-linejoin="round"/>
</svg>
