<svg width="154" height="184" viewBox="0 0 154 184" fill="none" xmlns="http://www.w3.org/2000/svg">
<path d="M23.6476 168.068C24.6865 176.038 31.4763 182 39.5134 182H112.166C120.119 182 126.866 176.158 128.002 168.285L147.356 34.1788C76.581 2 75.743 63.3408 6.19462 34.1788L23.6476 168.068Z" fill="#0077BE" style="mix-blend-mode:multiply"/>
<path d="M152 2L147.356 34.1788M2 2L6.19462 34.1788M6.19462 34.1788L23.6476 168.068C24.6865 176.038 31.4763 182 39.5134 182H112.166C120.119 182 126.866 176.158 128.002 168.285L147.356 34.1788M6.19462 34.1788C75.743 63.3408 76.581 2 147.356 34.1788" stroke="black" stroke-width="3" stroke-linecap="round" stroke-linejoin="round"/>
</svg>
