<svg width="196" height="196" viewBox="0 0 196 196" fill="none" xmlns="http://www.w3.org/2000/svg">
<path d="M29.9175 180.473C31.1356 188.26 37.8434 194 45.7253 194H147.281C155.065 194 161.719 188.399 163.047 180.73L188.056 36.324C97.4637 2 96.3911 67.4302 7.36912 36.324L29.9175 180.473Z" fill="#0077BE" style="mix-blend-mode:multiply"/>
<path d="M194 2L188.056 36.324M2 2L7.36912 36.324M7.36912 36.324L29.9175 180.473C31.1356 188.26 37.8434 194 45.7253 194H147.281C155.065 194 161.719 188.399 163.047 180.73L188.056 36.324M7.36912 36.324C96.3911 67.4302 97.4637 2 188.056 36.324" stroke="black" stroke-width="3" stroke-linecap="round" stroke-linejoin="round"/>
</svg>
